<svg version="1.2" xmlns="http://www.w3.org/2000/svg" viewBox="0 0 402 149" width="402" height="149">
	<title>3 Lines-svg</title>
	<style>
		.s0 { fill: #000000 } 
	</style>
	<g id="Layer_2">
		<g id="Layer_1-2">
			<path id="Layer" class="s0" d="m313 19.3h-303.3c-2.6 0-5.1-1-6.9-2.8-1.8-1.8-2.8-4.3-2.8-6.8 0-2.6 1-5.1 2.8-6.9 1.8-1.8 4.3-2.8 6.9-2.8h303.3c2.6 0 5 1 6.8 2.8 1.8 1.8 2.9 4.3 2.9 6.9 0 2.5-1.1 5-2.9 6.8-1.8 1.8-4.2 2.8-6.8 2.8z"/>
			<path id="Layer" class="s0" d="m391.8 85.2h-303.4c-2.6 0-5-1.1-6.9-2.9-1.8-1.8-2.8-4.2-2.8-6.8 0-2.6 1-5 2.8-6.8 1.9-1.9 4.3-2.9 6.9-2.9h303.3c2.6 0 5.1 1 6.9 2.9 1.8 1.8 2.8 4.2 2.8 6.8 0 2.6-1 5-2.8 6.8-1.8 1.8-4.3 2.9-6.9 2.9z"/>
			<path id="Layer" class="s0" d="m344.5 148.8h-303.4c-2.5 0-5-1-6.8-2.8-1.8-1.8-2.8-4.3-2.8-6.8 0-2.6 1-5 2.8-6.9 1.8-1.8 4.3-2.8 6.8-2.8h303.4c2.6 0 5 1 6.9 2.8 1.8 1.9 2.8 4.3 2.8 6.9 0 2.5-1 5-2.8 6.8-1.9 1.8-4.3 2.8-6.9 2.8z"/>
		</g>
	</g>
</svg>